<svg width="48" height="50" viewBox="0 0 48 50" fill="#EA8C3C" xmlns="http://www.w3.org/2000/svg">
<path d="M35.5416 15.2758C35.295 15.5492 35.02 15.82 34.72 16.0633C34.1958 16.4875 33.595 16.825 32.9308 16.9417C32.9091 16.9458 32.8875 16.9467 32.8658 16.9458C32.5491 16.9542 32.2258 16.8358 31.9391 16.6367C31.68 16.4575 31.4466 16.21 31.275 15.9325C31.0991 15.6492 30.985 15.33 30.9708 15.015C30.9575 14.7292 31.0241 14.4483 31.1975 14.1983L31.1983 14.1975H31.1975C31.5308 13.7192 31.9325 13.3292 32.3941 12.9867C32.7041 12.7567 33.0408 12.55 33.4008 12.3525C33.2841 12.3008 33.1616 12.2583 33.035 12.225C32.725 12.1433 32.39 12.1167 32.045 12.1483C31.1633 12.2292 30.3983 12.66 29.8733 13.2917C29.3483 13.9225 29.065 14.7542 29.1458 15.6367C29.1616 15.8075 29.19 15.9733 29.2308 16.1342C29.2333 16.1417 29.235 16.1492 29.2366 16.1558C29.4091 16.8175 29.785 17.3892 30.2891 17.8083C30.92 18.3333 31.7516 18.6167 32.6341 18.5358C33.5125 18.455 34.2683 18.0275 34.79 17.4008C35.2691 16.8242 35.5491 16.0783 35.5425 15.2758H35.5416ZM32.275 1.55333C32.7775 1.84333 33.1183 2.30583 33.2658 2.82333C33.6366 3.51583 34.2583 4.13167 35.0041 4.56167C35.7158 4.9725 36.5358 5.2125 37.35 5.185C37.8733 5.0525 38.4466 5.11583 38.9508 5.4075C39.4641 5.70417 39.8091 6.18083 39.9516 6.71167C40.0283 6.99917 40.0466 7.3025 39.9991 7.60167C40.3025 7.5525 40.61 7.56917 40.9008 7.6475C41.4316 7.79 41.9083 8.135 42.205 8.64833C42.495 9.15083 42.5591 9.72167 42.4283 10.2433C42.4033 11.0283 42.6341 11.8725 43.0641 12.6183C43.475 13.33 44.065 13.9475 44.7833 14.3317C45.3025 14.4783 45.7675 14.82 46.0583 15.3242C46.355 15.8375 46.415 16.4233 46.2725 16.9542C46.1958 17.2417 46.0591 17.5133 45.8683 17.7492C46.155 17.8583 46.4133 18.0267 46.6258 18.24C47.015 18.6292 47.255 19.1658 47.255 19.7592C47.255 20.3392 47.025 20.8658 46.6508 21.2525C46.2366 21.92 46.0141 22.7667 46.0141 23.6267C46.0141 24.4492 46.2166 25.2783 46.6466 25.97C47.0225 26.3567 47.2541 26.885 47.2541 27.4675C47.2541 28.0608 47.0133 28.5975 46.625 28.9867C46.4141 29.1975 46.1608 29.3642 45.8775 29.4733C46.0716 29.7108 46.2108 29.9858 46.2883 30.2767C46.4308 30.8075 46.37 31.3933 46.0741 31.9067C45.7841 32.4092 45.3216 32.75 44.8041 32.8975C44.1116 33.2683 43.4958 33.89 43.0658 34.6358C42.655 35.3475 42.415 36.1675 42.4425 36.9817C42.575 37.505 42.5116 38.0783 42.22 38.5825C42.1483 38.7058 42.0666 38.82 41.9766 38.9233L46.67 43.54C46.7158 43.5817 46.7491 43.6367 46.7641 43.7017C46.8025 43.8708 46.6975 44.0392 46.5283 44.0783L43.6991 44.7342L43.3583 49.3358C43.3533 49.4042 43.3266 49.4717 43.2758 49.5267C43.1583 49.6542 42.9591 49.6625 42.8316 49.545L37.1716 44.3408C35.7408 43.8208 34.3083 43.3892 32.8733 43.0467C30.0508 42.3725 27.2125 42.0383 24.3333 42.045C21.455 42.0383 18.6158 42.3717 15.7941 43.0467C14.3591 43.39 12.9275 43.8208 11.4958 44.3408L5.83581 49.545C5.70831 49.6625 5.50914 49.6542 5.39164 49.5267C5.34164 49.4725 5.31414 49.4042 5.30914 49.3358L4.96831 44.7342L2.13914 44.0783C1.96997 44.04 1.86414 43.8708 1.9033 43.7017C1.9183 43.6367 1.95164 43.5817 1.99747 43.54L6.35664 39.2525C6.13414 39.0842 5.94081 38.87 5.79247 38.6133C5.50247 38.1108 5.43831 37.54 5.56914 37.0183C5.59414 36.2333 5.36331 35.3892 4.93331 34.6433C4.52247 33.9317 3.93247 33.3142 3.21331 32.93C2.69414 32.7833 2.22914 32.4417 1.9383 31.9375C1.64164 31.4242 1.58164 30.8383 1.72414 30.3075C1.8008 30.02 1.93747 29.7483 2.1283 29.5125C1.84164 29.4033 1.5833 29.235 1.3708 29.0217C0.981638 28.6325 0.741638 28.0958 0.741638 27.5025C0.741638 26.9225 0.971638 26.3958 1.3458 26.0092C1.75997 25.3417 1.98247 24.495 1.98247 23.635C1.98247 22.8125 1.77997 21.9833 1.34997 21.2917C0.974138 20.905 0.742472 20.3767 0.742472 19.7942C0.742472 19.2008 0.983305 18.6642 1.37164 18.275C1.58247 18.0642 1.8358 17.8975 2.11914 17.7883C1.92497 17.5508 1.7858 17.2758 1.7083 16.985C1.5658 16.4542 1.62664 15.8683 1.92247 15.355C2.21247 14.8525 2.67497 14.5117 3.19247 14.3642C3.88497 13.9933 4.50081 13.3717 4.93081 12.6258C5.34164 11.9142 5.58164 11.0942 5.55414 10.28C5.42164 9.75667 5.48497 9.18333 5.77664 8.67917C6.07331 8.16583 6.54997 7.82083 7.08081 7.67833C7.36831 7.60167 7.67164 7.58333 7.97081 7.63083C7.92164 7.3275 7.93831 7.02 8.01664 6.72917C8.15914 6.19833 8.50414 5.72167 9.01747 5.425C9.51997 5.135 10.0908 5.07083 10.6125 5.20167C11.3975 5.22667 12.2416 4.99583 12.9875 4.56583C13.6991 4.155 14.3166 3.565 14.7008 2.84667C14.8475 2.3275 15.1891 1.8625 15.6933 1.57167C16.2066 1.275 16.7925 1.215 17.3233 1.3575C17.6108 1.43417 17.8825 1.57083 18.1183 1.76167C18.2275 1.475 18.3958 1.21667 18.6091 1.00417C18.9983 0.615 19.535 0.375 20.1283 0.375C20.7083 0.375 21.235 0.605 21.6216 0.979167C22.2891 1.39333 23.1358 1.61583 23.9958 1.61583C24.8183 1.61583 25.6475 1.41333 26.3391 0.983333C26.7258 0.6075 27.2541 0.375833 27.8366 0.375833C28.43 0.375833 28.9666 0.616667 29.3558 1.005C29.5666 1.21583 29.7333 1.46917 29.8425 1.7525C30.08 1.55833 30.355 1.41917 30.6458 1.34167C31.1766 1.19917 31.7625 1.26 32.2758 1.55583L32.275 1.55333ZM39.745 8.32833C39.7425 8.33333 39.74 8.3375 39.7366 8.3425C39.54 8.68333 39.2641 8.94917 38.9458 9.13167C38.9183 9.19667 38.8958 9.2625 38.8775 9.33083C38.7766 9.70583 38.8191 10.12 39.0291 10.4833C39.225 10.8225 39.5316 11.0575 39.8775 11.1692C39.9308 11.1667 39.9858 11.1775 40.0366 11.2042C40.0433 11.2075 40.0508 11.2117 40.0575 11.215C40.4033 11.2817 40.7741 11.2292 41.1033 11.0392C41.4666 10.8292 41.71 10.4925 41.8108 10.1175C41.9116 9.7425 41.8691 9.32833 41.6591 8.965C41.4491 8.60167 41.1125 8.35833 40.7375 8.2575C40.4158 8.17167 40.0666 8.19 39.745 8.32917V8.32833ZM38.2225 9.38833C37.75 9.46583 37.2491 9.38667 36.8025 9.12833C36.2891 8.83167 35.9441 8.355 35.8016 7.82417C35.7975 7.80667 35.7925 7.79 35.7883 7.7725C35.4141 7.10583 34.8075 6.515 34.0858 6.09833C33.395 5.69917 32.6033 5.4625 31.8133 5.47333C31.795 5.47917 31.7766 5.48417 31.7575 5.48917C31.2266 5.63167 30.6408 5.57083 30.1275 5.275C29.6841 5.01917 29.3666 4.62917 29.1966 4.18583C28.8266 4.48917 28.3525 4.67083 27.8366 4.67083C27.2433 4.67083 26.7066 4.43 26.3175 4.04167C26.305 4.02917 26.2925 4.01667 26.2808 4.00333C25.6233 3.61333 24.8025 3.405 23.9691 3.405C23.1716 3.405 22.3675 3.59583 21.6883 4C21.675 4.01417 21.6616 4.0275 21.6483 4.04167C21.2591 4.43083 20.7225 4.67083 20.1291 4.67083C19.6175 4.67083 19.1475 4.49167 18.7783 4.1925C18.6091 4.64 18.29 5.035 17.8433 5.2925C17.33 5.58917 16.7441 5.64917 16.2133 5.50667C16.1958 5.50167 16.1791 5.4975 16.1625 5.4925C15.3983 5.48333 14.5833 5.71333 13.8608 6.13C13.17 6.52917 12.5683 7.09583 12.1825 7.78583C12.1783 7.805 12.1733 7.82333 12.1683 7.84167C12.0258 8.3725 11.6808 8.84917 11.1675 9.14583C10.7241 9.40167 10.2275 9.48167 9.75831 9.4075C9.83581 9.88 9.75664 10.3808 9.49831 10.8275C9.20164 11.3408 8.72497 11.6858 8.19414 11.8283C8.17664 11.8325 8.15997 11.8375 8.14247 11.8417C7.47581 12.2158 6.88497 12.8225 6.46831 13.5442C6.06914 14.235 5.83247 15.0267 5.84331 15.8167C5.84914 15.835 5.85414 15.8533 5.85914 15.8725C6.00164 16.4033 5.94081 16.9892 5.64497 17.5025C5.38914 17.9458 4.99914 18.2633 4.55581 18.4333C4.85914 18.8033 5.04081 19.2775 5.04081 19.7933C5.04081 20.3867 4.79997 20.9233 4.41164 21.3125C4.39914 21.325 4.38664 21.3375 4.37331 21.3492C3.98331 22.0067 3.77497 22.8275 3.77497 23.6608C3.77497 24.4583 3.96581 25.2625 4.36997 25.9417C4.38414 25.955 4.39747 25.9683 4.41164 25.9817C4.80081 26.3708 5.04081 26.9075 5.04081 27.5008C5.04081 28.0125 4.86164 28.4825 4.56247 28.8517C5.00997 29.0208 5.40497 29.34 5.66247 29.7867C5.95914 30.3 6.01914 30.8858 5.87664 31.4167C5.87164 31.4342 5.86747 31.4508 5.86247 31.4675C5.85331 32.2317 6.08331 33.0467 6.49997 33.7692C6.89914 34.46 7.46581 35.0617 8.15581 35.4475C8.17497 35.4517 8.19331 35.4567 8.21164 35.4617C8.39997 35.5125 8.58164 35.5883 8.75081 35.6883C11.3316 34.5658 13.9058 33.7258 16.4766 33.1683C19.0958 32.6008 21.715 32.3258 24.3375 32.345C26.8783 32.3267 29.4183 32.585 31.9591 33.1183C34.4833 33.6483 37.0083 34.45 39.5383 35.5225C39.6258 35.4858 39.7166 35.455 39.8083 35.4308C39.8258 35.4267 39.8425 35.4217 39.86 35.4175C40.5266 35.0433 41.1175 34.4367 41.5341 33.715C41.9333 33.0242 42.17 32.2325 42.1591 31.4425C42.1533 31.4242 42.1483 31.4058 42.1433 31.3867C42.0008 30.8558 42.0616 30.27 42.3575 29.7567C42.6133 29.3133 43.0033 28.9958 43.4466 28.8258C43.1433 28.4558 42.9616 27.9817 42.9616 27.4658C42.9616 26.8725 43.2025 26.3358 43.5908 25.9467C43.6033 25.9342 43.6158 25.9217 43.6291 25.91C44.0191 25.2525 44.2275 24.4317 44.2275 23.5983C44.2275 22.8008 44.0366 21.9967 43.6325 21.3175C43.6183 21.3042 43.605 21.2908 43.5908 21.2775C43.2016 20.8883 42.9616 20.3517 42.9616 19.7583C42.9616 19.2467 43.1408 18.7767 43.44 18.4075C42.9925 18.2383 42.5975 17.9192 42.34 17.4725C42.0433 16.9592 41.9833 16.3733 42.1258 15.8425C42.1308 15.825 42.135 15.8083 42.14 15.7917C42.1491 15.0275 41.9191 14.2125 41.5025 13.49C41.1033 12.7992 40.5366 12.1975 39.8466 11.8117C39.8275 11.8075 39.8091 11.8025 39.7908 11.7975C39.26 11.655 38.7833 11.31 38.4866 10.7967C38.2308 10.3533 38.1508 9.85667 38.225 9.3875L38.2225 9.38833ZM29.0525 3.43083C29.0491 3.06 29.1416 2.68417 29.3408 2.34L29.3433 2.33583C29.3008 1.99083 29.1433 1.68167 28.91 1.44833C28.635 1.17333 28.2558 1.00333 27.8366 1.00333C27.4175 1.00333 27.0375 1.17333 26.7633 1.44833C26.4883 1.72333 26.3183 2.1025 26.3183 2.52167C26.3183 2.90083 26.4575 3.2475 26.6866 3.51333C26.6941 3.51833 26.7016 3.5225 26.7091 3.5275C26.7583 3.55917 26.7966 3.60167 26.8208 3.65083C27.09 3.89333 27.4458 4.04083 27.8366 4.04083C28.2558 4.04083 28.6358 3.87083 28.91 3.59583C28.9616 3.54417 29.0091 3.48917 29.0533 3.43083H29.0525ZM38.36 6.43C38.5916 6.56333 38.7466 6.77833 38.8108 7.0175C38.875 7.25667 38.8475 7.52 38.7141 7.75167C38.5808 7.98333 38.3658 8.13833 38.1266 8.2025C37.8875 8.26667 37.6241 8.23917 37.3925 8.10583C37.1608 7.9725 37.0058 7.7575 36.9416 7.51833C36.8775 7.27917 36.905 7.01583 37.0383 6.78417C37.1716 6.5525 37.3866 6.3975 37.6258 6.33333C37.865 6.26917 38.1283 6.29667 38.36 6.43ZM38.4308 7.11917C38.3925 6.9775 38.3008 6.85 38.1633 6.77083C38.0258 6.69167 37.87 6.67583 37.7275 6.71333C37.5858 6.75167 37.4583 6.84333 37.3791 6.98083C37.3 7.11833 37.2841 7.27417 37.3216 7.41667C37.36 7.55833 37.4516 7.68583 37.5891 7.765C37.7266 7.84417 37.8825 7.86 38.025 7.8225C38.1666 7.78417 38.2941 7.6925 38.3733 7.555C38.4525 7.4175 38.4683 7.26167 38.4308 7.11917ZM31.685 2.57583C31.9166 2.70917 32.0716 2.92417 32.1358 3.16333C32.2 3.4025 32.1725 3.66583 32.0391 3.8975C31.9058 4.12917 31.6908 4.28417 31.4516 4.34833C31.2125 4.4125 30.9491 4.385 30.7175 4.25167C30.4858 4.11833 30.3308 3.90333 30.2666 3.66417C30.2025 3.425 30.23 3.16167 30.3633 2.93C30.4966 2.69833 30.7116 2.54333 30.9508 2.47917C31.19 2.415 31.4533 2.4425 31.685 2.57583ZM31.7558 3.265C31.7175 3.12333 31.6258 2.99583 31.4883 2.91667C31.3508 2.8375 31.195 2.82167 31.0525 2.85917C30.9108 2.8975 30.7833 2.98917 30.7041 3.12667C30.625 3.26417 30.6091 3.42 30.6466 3.5625C30.685 3.70417 30.7766 3.83167 30.9141 3.91083C31.0516 3.99 31.2075 4.00583 31.35 3.96833C31.4916 3.93 31.6191 3.83833 31.6983 3.70083C31.7775 3.56333 31.7933 3.4075 31.7558 3.265ZM35.8025 6.70667C35.85 6.53083 35.9208 6.35917 36.0158 6.19417C36.1158 6.02167 36.235 5.86833 36.3708 5.735C35.7791 5.625 35.2075 5.40667 34.6891 5.1075C34.1525 4.7975 33.6708 4.40083 33.2816 3.9475C33.2341 4.1325 33.1608 4.31417 33.0608 4.48833C32.9666 4.6525 32.8533 4.79833 32.7258 4.9275C33.315 5.0375 33.8833 5.25583 34.3991 5.55333C34.9333 5.86167 35.4125 6.25667 35.8008 6.70667H35.8025ZM36.3975 7.575C36.425 7.62667 36.4358 7.68333 36.4333 7.7375C36.545 8.08167 36.78 8.3875 37.1183 8.58333C37.4816 8.79333 37.895 8.83583 38.2708 8.735C38.3408 8.71583 38.41 8.6925 38.4775 8.66333C38.66 8.34083 38.9283 8.06167 39.2725 7.8625L39.2766 7.86C39.4125 7.54 39.4308 7.19333 39.345 6.875C39.2441 6.5 39.0008 6.1625 38.6375 5.95333C38.2741 5.74333 37.8608 5.70083 37.485 5.80167C37.11 5.9025 36.7725 6.14583 36.5633 6.50917C36.3741 6.8375 36.3208 7.20667 36.3866 7.5525C36.3908 7.56 36.395 7.5675 36.3991 7.57583L36.3975 7.575ZM31.52 4.89833C31.565 4.86917 31.6183 4.85167 31.675 4.84917C31.6825 4.84917 31.6908 4.84833 31.6983 4.84833C32.0316 4.73333 32.3258 4.50167 32.5166 4.1725C32.7266 3.80917 32.7691 3.39583 32.6683 3.02C32.5675 2.645 32.3241 2.3075 31.9608 2.09833C31.5975 1.88833 31.1841 1.84583 30.8083 1.94667C30.4866 2.0325 30.1933 2.22417 29.9841 2.505C29.9841 2.51 29.9841 2.51583 29.9841 2.52083C29.9841 2.91417 29.8783 3.2825 29.6941 3.59917C29.7025 3.66917 29.7166 3.7375 29.7341 3.80583C29.835 4.18083 30.0783 4.51833 30.4416 4.7275C30.7808 4.92333 31.1641 4.97333 31.5191 4.8975L31.52 4.89833ZM45.2875 18.2508C45.2825 18.2533 45.2783 18.2567 45.2733 18.2592C44.9325 18.4558 44.5608 18.5483 44.1941 18.5475C44.1383 18.59 44.085 18.6358 44.0358 18.6858C43.7608 18.9608 43.5908 19.34 43.5908 19.7592C43.5908 20.1508 43.7391 20.5075 43.9825 20.7775C44.03 20.8017 44.0716 20.8392 44.1025 20.8875C44.1066 20.8942 44.1108 20.9008 44.115 20.9075C44.3816 21.1383 44.7291 21.2783 45.1091 21.2783C45.5283 21.2783 45.9083 21.1083 46.1825 20.8333C46.4575 20.5583 46.6275 20.1792 46.6275 19.76C46.6275 19.3408 46.4575 18.9608 46.1825 18.6867C45.9475 18.4517 45.635 18.2933 45.2866 18.2525L45.2875 18.2508ZM45.0375 15.915C45.1708 16.1467 45.1983 16.41 45.1341 16.6492C45.07 16.8883 44.915 17.1033 44.6833 17.2367C44.4516 17.37 44.1883 17.3975 43.9491 17.3333C43.71 17.2692 43.495 17.1142 43.3616 16.8825C43.2283 16.6508 43.2008 16.3875 43.265 16.1483C43.3291 15.9092 43.4841 15.6942 43.7158 15.5608C43.9475 15.4275 44.2108 15.4 44.45 15.4642C44.6891 15.5283 44.9041 15.6833 45.0375 15.915ZM44.7541 16.5475C44.7925 16.4058 44.7758 16.2492 44.6966 16.1117C44.6175 15.9742 44.49 15.8825 44.3483 15.8442C44.2066 15.8058 44.05 15.8225 43.9125 15.9017C43.775 15.9808 43.6833 16.1083 43.645 16.25C43.6066 16.3917 43.6233 16.5483 43.7025 16.6858C43.7816 16.8233 43.9091 16.915 44.0508 16.9533C44.1925 16.9917 44.3491 16.975 44.4866 16.8958C44.6241 16.8167 44.7158 16.6892 44.7541 16.5475ZM41.1833 9.23917C41.3166 9.47083 41.3441 9.73417 41.28 9.97333C41.2158 10.2125 41.0608 10.4275 40.8291 10.5608C40.5975 10.6942 40.3341 10.7217 40.095 10.6575C39.8558 10.5933 39.6408 10.4383 39.5075 10.2067C39.3741 9.975 39.3466 9.71167 39.4108 9.4725C39.475 9.23333 39.63 9.01833 39.8616 8.885C40.0933 8.75167 40.3566 8.72417 40.5958 8.78833C40.835 8.8525 41.05 9.0075 41.1833 9.23917ZM40.9 9.87167C40.9383 9.73 40.9216 9.57333 40.8425 9.43583C40.7633 9.29833 40.6358 9.20667 40.4941 9.16833C40.3525 9.13 40.1958 9.14667 40.0583 9.22583C39.9208 9.305 39.8291 9.4325 39.7908 9.57417C39.7525 9.71583 39.7691 9.8725 39.8483 10.01C39.9275 10.1475 40.055 10.2392 40.1966 10.2775C40.3383 10.3158 40.495 10.2992 40.6325 10.22C40.77 10.1408 40.8616 10.0133 40.9 9.87167ZM42.6841 14.875C42.8133 14.7467 42.9608 14.6333 43.1258 14.5375C43.2983 14.4375 43.4791 14.365 43.6625 14.3175C43.205 13.9267 42.8191 13.4517 42.52 12.9333C42.21 12.3967 41.9916 11.8125 41.8816 11.225C41.7475 11.3617 41.5933 11.4825 41.42 11.5825C41.2558 11.6767 41.085 11.7475 40.9108 11.795C41.3658 12.185 41.7491 12.6583 42.0475 13.1742C42.3558 13.7083 42.5733 14.29 42.685 14.8742L42.6841 14.875ZM42.765 15.9242C42.7625 15.9825 42.7441 16.0367 42.7141 16.0825C42.6391 16.4367 42.6891 16.8192 42.8841 17.1575C43.0941 17.5208 43.4308 17.7642 43.8058 17.865C43.8758 17.8842 43.9475 17.8975 44.02 17.9067C44.3391 17.7183 44.7116 17.6108 45.1083 17.6108H45.1133C45.3908 17.4017 45.58 17.1108 45.665 16.7917C45.7658 16.4167 45.7233 16.0025 45.5133 15.6392C45.3033 15.2758 44.9666 15.0325 44.5916 14.9317C44.2166 14.8308 43.8025 14.8733 43.4391 15.0833C43.1108 15.2725 42.88 15.5667 42.765 15.8983C42.765 15.9067 42.7641 15.9158 42.7641 15.9242H42.765ZM45.1258 29.615C45.1208 29.615 45.115 29.615 45.11 29.615C44.7166 29.615 44.3483 29.5092 44.0316 29.325C43.9616 29.3333 43.8933 29.3475 43.825 29.365C43.45 29.4658 43.1125 29.7092 42.9033 30.0725C42.7075 30.4117 42.6575 30.795 42.7333 31.15C42.7625 31.195 42.78 31.2483 42.7825 31.305C42.7825 31.3125 42.7833 31.3208 42.7833 31.3283C42.8983 31.6617 43.13 31.9558 43.4591 32.1467C43.8225 32.3567 44.2358 32.3992 44.6116 32.2983C44.9866 32.1975 45.3241 31.9542 45.5333 31.5908C45.7433 31.2275 45.7858 30.8142 45.685 30.4383C45.5991 30.1167 45.4075 29.8233 45.1266 29.6142L45.1258 29.615ZM46.0775 27.4667C46.0775 27.7342 45.9691 27.9758 45.7941 28.1508C45.6191 28.3258 45.3775 28.4342 45.11 28.4342C44.8425 28.4342 44.6008 28.3258 44.4258 28.1508C44.2508 27.9758 44.1425 27.7342 44.1425 27.4667C44.1425 27.1992 44.2508 26.9575 44.4258 26.7825C44.6008 26.6075 44.8425 26.4992 45.11 26.4992C45.3775 26.4992 45.6191 26.6075 45.7941 26.7825C45.9691 26.9575 46.0775 27.1992 46.0775 27.4667ZM45.5158 27.8725C45.62 27.7683 45.6841 27.625 45.6841 27.4667C45.6841 27.3083 45.62 27.165 45.5158 27.0608C45.4116 26.9567 45.2683 26.8925 45.11 26.8925C44.9516 26.8925 44.8083 26.9567 44.7041 27.0608C44.6 27.165 44.5358 27.3083 44.5358 27.4667C44.5358 27.625 44.6 27.7683 44.7041 27.8725C44.8083 27.9767 44.9516 28.0408 45.11 28.0408C45.2683 28.0408 45.4116 27.9767 45.5158 27.8725ZM46.0775 19.7583C46.0775 20.0258 45.9691 20.2675 45.7941 20.4425C45.6191 20.6175 45.3775 20.7258 45.11 20.7258C44.8425 20.7258 44.6008 20.6175 44.4258 20.4425C44.2508 20.2675 44.1425 20.0258 44.1425 19.7583C44.1425 19.4908 44.2508 19.2492 44.4258 19.0742C44.6008 18.8992 44.8425 18.7908 45.11 18.7908C45.3775 18.7908 45.6191 18.8992 45.7941 19.0742C45.9691 19.2492 46.0775 19.4908 46.0775 19.7583ZM45.5158 20.1642C45.62 20.06 45.6841 19.9167 45.6841 19.7583C45.6841 19.6 45.62 19.4567 45.5158 19.3525C45.4116 19.2483 45.2683 19.1842 45.11 19.1842C44.9516 19.1842 44.8083 19.2483 44.7041 19.3525C44.6 19.4567 44.5358 19.6 44.5358 19.7583C44.5358 19.9167 44.6 20.06 44.7041 20.1642C44.8083 20.2683 44.9516 20.3325 45.11 20.3325C45.2683 20.3325 45.4116 20.2683 45.5158 20.1642ZM44.5591 25.39C44.735 25.3433 44.92 25.3183 45.11 25.3183C45.3091 25.3183 45.5025 25.3458 45.685 25.3958C45.4841 24.8283 45.3875 24.2242 45.3875 23.6258C45.3875 23.0067 45.4908 22.3908 45.6883 21.8275C45.5041 21.8792 45.31 21.9067 45.11 21.9067C44.9208 21.9067 44.7375 21.8825 44.5625 21.8367C44.7616 22.4017 44.8566 23.0033 44.8566 23.5992C44.8566 24.2158 44.7541 24.8283 44.5583 25.39H44.5591ZM44.105 26.3392C44.0733 26.3883 44.0308 26.4267 43.9816 26.4508C43.7391 26.72 43.5916 27.0758 43.5916 27.4667C43.5916 27.8858 43.7616 28.2658 44.0366 28.54C44.0883 28.5917 44.1433 28.6392 44.2016 28.6833C44.5725 28.68 44.9483 28.7725 45.2925 28.9717L45.2966 28.9742C45.6416 28.9317 45.9508 28.7742 46.1841 28.5408C46.4591 28.2658 46.6291 27.8867 46.6291 27.4675C46.6291 27.0483 46.4591 26.6683 46.1841 26.3942C45.9091 26.1192 45.53 25.9492 45.1108 25.9492C44.7316 25.9492 44.385 26.0883 44.1191 26.3175C44.1141 26.325 44.11 26.3325 44.105 26.34V26.3392ZM41.1491 39.5075C41.0741 39.5367 40.9983 39.5617 40.9208 39.5825C40.39 39.725 39.8041 39.6642 39.2908 39.3683C38.7775 39.0717 38.4325 38.595 38.29 38.0642C38.1475 37.5333 38.2083 36.9475 38.505 36.4342C38.6141 36.245 38.7475 36.0792 38.8983 35.9383C36.5383 34.9642 34.1841 34.23 31.8325 33.7358C29.3316 33.2108 26.835 32.9575 24.34 32.975H24.3375C21.7658 32.9567 19.1908 33.2275 16.6108 33.7867C14.1733 34.315 11.7333 35.1008 9.28997 36.1433C9.37414 36.2417 9.44997 36.3492 9.51747 36.465C9.81414 36.9783 9.87414 37.5642 9.73164 38.095C9.58914 38.6258 9.24414 39.1025 8.73081 39.3992C8.35164 39.6183 7.93331 39.7083 7.52747 39.6833V45.315C8.75164 44.74 9.97581 44.2292 11.2008 43.7808C11.2183 43.7725 11.2358 43.7658 11.2541 43.7617C12.7175 43.2292 14.1833 42.7867 15.6533 42.435C18.5241 41.7492 21.4108 41.4092 24.3383 41.4167C27.265 41.4092 30.1525 41.7492 33.0233 42.435C34.4941 42.7867 35.9591 43.2283 37.4225 43.7617C37.4408 43.7667 37.4583 43.7733 37.4758 43.7808C38.7008 44.2283 39.925 44.74 41.1491 45.315V39.5083V39.5075ZM41.2025 37.9917C41.0691 38.2233 40.8541 38.3783 40.615 38.4425C40.3758 38.5067 40.1125 38.4792 39.8808 38.3458C39.6491 38.2125 39.4941 37.9975 39.43 37.7583C39.3658 37.5192 39.3933 37.2558 39.5266 37.0242C39.66 36.7925 39.875 36.6375 40.1141 36.5733C40.3533 36.5092 40.6166 36.5367 40.8483 36.67C41.08 36.8033 41.235 37.0183 41.2991 37.2575C41.3633 37.4967 41.3358 37.76 41.2025 37.9917ZM40.5133 38.0625C40.655 38.0242 40.7825 37.9325 40.8616 37.795C40.9408 37.6575 40.9566 37.5017 40.9191 37.3592C40.8808 37.2175 40.7891 37.09 40.6516 37.0108C40.5141 36.9317 40.3583 36.9158 40.2158 36.9533C40.0741 36.9917 39.9466 37.0833 39.8675 37.2208C39.7883 37.3583 39.7725 37.5142 39.81 37.6567C39.8483 37.7983 39.94 37.9258 40.0775 38.005C40.215 38.0842 40.3708 38.1 40.5133 38.0625ZM45.0566 31.3167C44.9233 31.5483 44.7083 31.7033 44.4691 31.7675C44.23 31.8317 43.9666 31.8042 43.735 31.6708C43.5033 31.5375 43.3483 31.3225 43.2841 31.0833C43.22 30.8442 43.2475 30.5808 43.3808 30.3492C43.5141 30.1175 43.7291 29.9625 43.9683 29.8983C44.2075 29.8342 44.4708 29.8617 44.7025 29.995C44.9341 30.1283 45.0891 30.3433 45.1533 30.5825C45.2175 30.8217 45.19 31.085 45.0566 31.3167ZM44.3675 31.3875C44.5091 31.3492 44.6366 31.2575 44.7158 31.12C44.795 30.9825 44.8108 30.8267 44.7733 30.6842C44.735 30.5425 44.6433 30.415 44.5058 30.3358C44.3683 30.2567 44.2125 30.2408 44.07 30.2783C43.9283 30.3167 43.8008 30.4083 43.7216 30.5458C43.6425 30.6833 43.6266 30.8392 43.6641 30.9817C43.7025 31.1233 43.7941 31.2508 43.9316 31.33C44.0691 31.4092 44.225 31.425 44.3675 31.3875ZM40.9258 35.4342C41.1016 35.4817 41.2733 35.5525 41.4383 35.6475C41.6108 35.7475 41.7641 35.8667 41.8975 36.0025C42.0075 35.4108 42.2258 34.8392 42.525 34.3208C42.835 33.7842 43.2316 33.3025 43.685 32.9133C43.5 32.8658 43.3183 32.7925 43.1441 32.6925C42.98 32.5983 42.8341 32.485 42.705 32.3575C42.595 32.9467 42.3766 33.515 42.0791 34.0308C41.7708 34.565 41.3758 35.0442 40.9258 35.4325V35.4342ZM40.0575 36.0292C40.0058 36.0567 39.9491 36.0675 39.895 36.065C39.5508 36.1767 39.245 36.4117 39.0491 36.75C38.8391 37.1133 38.7966 37.5267 38.8975 37.9025C38.9983 38.2775 39.2416 38.615 39.605 38.8242C39.9683 39.0342 40.3816 39.0767 40.7575 38.9758C41.1325 38.875 41.47 38.6317 41.6791 38.2683C41.8891 37.905 41.9316 37.4917 41.8308 37.1158C41.73 36.7408 41.4866 36.4033 41.1233 36.1942C40.795 36.005 40.4258 35.9517 40.08 36.0175C40.0725 36.0217 40.065 36.0258 40.0566 36.03L40.0575 36.0292ZM2.71414 29.0117C2.71914 29.0092 2.72331 29.0058 2.72831 29.0033C3.06914 28.8067 3.44081 28.7142 3.80747 28.715C3.86331 28.6725 3.91664 28.6267 3.96581 28.5767C4.24081 28.3017 4.41081 27.9225 4.41081 27.5033C4.41081 27.1117 4.26247 26.755 4.01914 26.485C3.97164 26.4608 3.92997 26.4233 3.89914 26.375C3.89497 26.3683 3.89081 26.3617 3.88664 26.355C3.61997 26.1242 3.27247 25.9842 2.89247 25.9842C2.47331 25.9842 2.0933 26.1542 1.81914 26.4292C1.54414 26.7042 1.37414 27.0833 1.37414 27.5025C1.37414 27.9217 1.54414 28.3017 1.81914 28.5758C2.05414 28.8108 2.36664 28.9692 2.71497 29.01L2.71414 29.0117ZM2.96414 31.3475C2.83081 31.1158 2.80331 30.8525 2.86747 30.6133C2.93164 30.3742 3.08664 30.1592 3.31831 30.0258C3.54997 29.8925 3.81331 29.865 4.05247 29.9292C4.29164 29.9933 4.50664 30.1483 4.63997 30.38C4.77331 30.6117 4.80081 30.875 4.73664 31.1142C4.67247 31.3533 4.51747 31.5683 4.28581 31.7017C4.05414 31.835 3.79081 31.8625 3.55164 31.7983C3.31247 31.7342 3.09747 31.5792 2.96414 31.3475ZM3.24747 30.715C3.20914 30.8567 3.22581 31.0133 3.30497 31.1508C3.38414 31.2883 3.51164 31.38 3.65331 31.4183C3.79497 31.4567 3.95164 31.44 4.08914 31.3608C4.22664 31.2817 4.31831 31.1542 4.35664 31.0125C4.39497 30.8708 4.37831 30.7142 4.29914 30.5767C4.21997 30.4392 4.09247 30.3475 3.95081 30.3092C3.80914 30.2708 3.65247 30.2875 3.51497 30.3667C3.37747 30.4458 3.28581 30.5733 3.24747 30.715ZM6.81831 38.0233C6.68497 37.7917 6.65747 37.5283 6.72164 37.2892C6.78581 37.05 6.94081 36.835 7.17247 36.7017C7.40414 36.5683 7.66747 36.5408 7.90664 36.605C8.14581 36.6692 8.36081 36.8242 8.49414 37.0558C8.62747 37.2875 8.65497 37.5508 8.59081 37.79C8.52664 38.0292 8.37164 38.2442 8.13997 38.3775C7.90831 38.5108 7.64497 38.5383 7.40581 38.4742C7.16664 38.41 6.95164 38.255 6.81831 38.0233ZM7.10164 37.3908C7.06331 37.5325 7.07997 37.6892 7.15914 37.8267C7.23831 37.9642 7.36581 38.0558 7.50747 38.0942C7.64914 38.1325 7.80581 38.1158 7.94331 38.0367C8.08081 37.9575 8.17247 37.83 8.21081 37.6883C8.24914 37.5467 8.23247 37.39 8.15331 37.2525C8.07414 37.115 7.94664 37.0233 7.80497 36.985C7.66331 36.9467 7.50664 36.9633 7.36914 37.0425C7.23164 37.1217 7.13997 37.2492 7.10164 37.3908ZM5.31747 32.3875C5.18831 32.5158 5.04081 32.6292 4.87581 32.725C4.70331 32.825 4.52247 32.8975 4.33914 32.945C4.79664 33.3358 5.18247 33.8108 5.48164 34.3292C5.79164 34.8658 6.00997 35.45 6.11997 36.0375C6.25414 35.9008 6.40831 35.78 6.58164 35.68C6.74581 35.5858 6.91664 35.515 7.09081 35.4675C6.63581 35.0775 6.25247 34.6042 5.95414 34.0883C5.64581 33.5542 5.42831 32.9725 5.31664 32.3883L5.31747 32.3875ZM5.23664 31.3383C5.23914 31.28 5.25747 31.2258 5.28747 31.18C5.36247 30.8258 5.31247 30.4433 5.11747 30.105C4.90747 29.7417 4.57081 29.4983 4.19581 29.3975C4.12581 29.3783 4.05414 29.365 3.98164 29.3558C3.66247 29.5442 3.28997 29.6517 2.89331 29.6517H2.88831C2.61081 29.8608 2.42164 30.1517 2.33664 30.4708C2.2358 30.8458 2.2783 31.26 2.48831 31.6233C2.69831 31.9867 3.03497 32.23 3.40997 32.3308C3.78497 32.4317 4.19914 32.3892 4.56247 32.1792C4.89081 31.99 5.12164 31.6958 5.23664 31.3642C5.23664 31.3558 5.23747 31.3467 5.23747 31.3383H5.23664ZM8.12247 36.095C8.06914 36.0975 8.01414 36.0867 7.96331 36.06C7.95664 36.0567 7.94914 36.0525 7.94247 36.0492C7.59664 35.9825 7.22581 36.035 6.89664 36.225C6.53331 36.435 6.28997 36.7717 6.18914 37.1467C6.08831 37.5217 6.13081 37.9358 6.34081 38.2992C6.55081 38.6625 6.88747 38.9058 7.26247 39.0067C7.63747 39.1075 8.05164 39.065 8.41497 38.855C8.77831 38.645 9.02164 38.3083 9.12247 37.9333C9.22331 37.5583 9.18081 37.1442 8.97081 36.7808C8.77497 36.4417 8.46831 36.2067 8.12247 36.095ZM2.87581 17.6475C2.88081 17.6475 2.88664 17.6475 2.89164 17.6475C3.28497 17.6475 3.65331 17.7533 3.96997 17.9375C4.03997 17.9292 4.10831 17.915 4.17664 17.8975C4.55164 17.7967 4.88914 17.5533 5.09831 17.19C5.29414 16.8508 5.34414 16.4675 5.26831 16.1125C5.23914 16.0675 5.22164 16.0142 5.21914 15.9575C5.21914 15.95 5.21831 15.9417 5.21831 15.9342C5.10331 15.6008 4.87164 15.3067 4.54247 15.1158C4.17914 14.9058 3.76581 14.8633 3.38997 14.9642C3.01497 15.065 2.67747 15.3083 2.46831 15.6717C2.2583 16.035 2.2158 16.4483 2.31664 16.8242C2.40247 17.1458 2.59414 17.4392 2.87497 17.6483L2.87581 17.6475ZM1.92414 19.7958C1.92414 19.5283 2.03247 19.2867 2.20747 19.1117C2.38247 18.9367 2.62414 18.8283 2.89164 18.8283C3.15914 18.8283 3.40081 18.9367 3.57581 19.1117C3.75081 19.2867 3.85914 19.5283 3.85914 19.7958C3.85914 20.0633 3.75081 20.305 3.57581 20.48C3.40081 20.655 3.15914 20.7633 2.89164 20.7633C2.62414 20.7633 2.38247 20.655 2.20747 20.48C2.03247 20.305 1.92414 20.0633 1.92414 19.7958ZM2.48581 19.39C2.38164 19.4942 2.31747 19.6375 2.31747 19.7958C2.31747 19.9542 2.38164 20.0975 2.48581 20.2017C2.58997 20.3058 2.73331 20.37 2.89164 20.37C3.04997 20.37 3.19331 20.3058 3.29747 20.2017C3.40164 20.0975 3.46581 19.9542 3.46581 19.7958C3.46581 19.6375 3.40164 19.4942 3.29747 19.39C3.19331 19.2858 3.04997 19.2217 2.89164 19.2217C2.73331 19.2217 2.58997 19.2858 2.48581 19.39ZM1.92414 27.5042C1.92414 27.2367 2.03247 26.995 2.20747 26.82C2.38247 26.645 2.62414 26.5367 2.89164 26.5367C3.15914 26.5367 3.40081 26.645 3.57581 26.82C3.75081 26.995 3.85914 27.2367 3.85914 27.5042C3.85914 27.7717 3.75081 28.0133 3.57581 28.1883C3.40081 28.3633 3.15914 28.4717 2.89164 28.4717C2.62414 28.4717 2.38247 28.3633 2.20747 28.1883C2.03247 28.0133 1.92414 27.7717 1.92414 27.5042ZM2.48581 27.0983C2.38164 27.2025 2.31747 27.3458 2.31747 27.5042C2.31747 27.6625 2.38164 27.8058 2.48581 27.91C2.58997 28.0142 2.73331 28.0783 2.89164 28.0783C3.04997 28.0783 3.19331 28.0142 3.29747 27.91C3.40164 27.8058 3.46581 27.6625 3.46581 27.5042C3.46581 27.3458 3.40164 27.2025 3.29747 27.0983C3.19331 26.9942 3.04997 26.93 2.89164 26.93C2.73331 26.93 2.58997 26.9942 2.48581 27.0983ZM3.44247 21.8733C3.26664 21.92 3.08164 21.945 2.89164 21.945C2.69247 21.945 2.49914 21.9175 2.31664 21.8675C2.51747 22.435 2.61414 23.0392 2.61414 23.6375C2.61414 24.2567 2.51081 24.8725 2.3133 25.4358C2.49747 25.3842 2.69164 25.3567 2.89247 25.3567C3.08164 25.3567 3.26497 25.3808 3.43997 25.4267C3.24081 24.8617 3.14581 24.26 3.14581 23.6642C3.14581 23.0475 3.24831 22.435 3.44414 21.8733H3.44247ZM3.89664 20.9242C3.92831 20.875 3.97081 20.8367 4.01997 20.8125C4.26247 20.5433 4.40997 20.1875 4.40997 19.7967C4.40997 19.3775 4.23997 18.9975 3.96497 18.7233C3.91331 18.6717 3.85831 18.6242 3.79997 18.58C3.42914 18.5833 3.05331 18.4908 2.70914 18.2917L2.70497 18.2892C2.35997 18.3317 2.0508 18.4892 1.81747 18.7225C1.54247 18.9975 1.37247 19.3767 1.37247 19.7958C1.37247 20.215 1.54247 20.595 1.81747 20.8692C2.09247 21.1442 2.47164 21.3142 2.89081 21.3142C3.26997 21.3142 3.61664 21.175 3.88247 20.9458C3.88747 20.9383 3.89164 20.9308 3.89664 20.9233V20.9242ZM8.69747 7.8875C8.70247 7.89 8.70664 7.8925 8.71164 7.89583C9.05247 8.0925 9.31831 8.36833 9.50081 8.68667C9.56581 8.71417 9.63164 8.73667 9.69997 8.755C10.075 8.85583 10.4891 8.81333 10.8525 8.60333C11.1916 8.4075 11.4266 8.10083 11.5383 7.755C11.5358 7.70167 11.5466 7.64667 11.5733 7.59583C11.5766 7.58917 11.5808 7.58167 11.5841 7.575C11.6508 7.22917 11.5983 6.85833 11.4083 6.52917C11.1983 6.16583 10.8616 5.9225 10.4866 5.82167C10.1116 5.72083 9.69747 5.76333 9.33414 5.97333C8.97081 6.18333 8.72747 6.52 8.62664 6.895C8.54081 7.21667 8.55914 7.56583 8.69831 7.8875H8.69747ZM6.79914 9.27167C6.93247 9.04 7.14747 8.885 7.38664 8.82083C7.62581 8.75667 7.88914 8.78417 8.12081 8.9175C8.35247 9.05083 8.50747 9.26583 8.57164 9.505C8.63581 9.74417 8.60831 10.0075 8.47497 10.2392C8.34164 10.4708 8.12664 10.6258 7.88747 10.69C7.64831 10.7542 7.38497 10.7267 7.15331 10.5933C6.92164 10.46 6.76664 10.245 6.70247 10.0058C6.63831 9.76667 6.66581 9.50333 6.79914 9.27167ZM7.48831 9.20083C7.34664 9.23917 7.21914 9.33083 7.13997 9.46833C7.06081 9.60583 7.04497 9.76167 7.08247 9.90417C7.12081 10.0458 7.21247 10.1733 7.34997 10.2525C7.48747 10.3317 7.64331 10.3475 7.78581 10.31C7.92747 10.2717 8.05497 10.18 8.13414 10.0425C8.21331 9.905 8.22914 9.74917 8.19164 9.60667C8.15331 9.465 8.06164 9.3375 7.92414 9.25833C7.78664 9.17917 7.63081 9.16333 7.48831 9.20083ZM2.94497 15.9467C3.07831 15.715 3.29331 15.56 3.53247 15.4958C3.77164 15.4317 4.03497 15.4592 4.26664 15.5925C4.49831 15.7258 4.65331 15.9408 4.71747 16.18C4.78164 16.4192 4.75414 16.6825 4.62081 16.9142C4.48747 17.1458 4.27247 17.3008 4.03331 17.365C3.79414 17.4292 3.53081 17.4017 3.29914 17.2683C3.06747 17.135 2.91247 16.92 2.84831 16.6808C2.78414 16.4417 2.81164 16.1783 2.94497 15.9467ZM3.63414 15.8758C3.49247 15.9142 3.36497 16.0058 3.28581 16.1433C3.20664 16.2808 3.19081 16.4367 3.22831 16.5792C3.26664 16.7208 3.35831 16.8483 3.49581 16.9275C3.63331 17.0067 3.78914 17.0225 3.93164 16.985C4.07331 16.9467 4.20081 16.855 4.27997 16.7175C4.35914 16.58 4.37497 16.4242 4.33747 16.2817C4.29914 16.14 4.20747 16.0125 4.06997 15.9333C3.93247 15.8542 3.77664 15.8383 3.63414 15.8758ZM7.07581 11.8292C6.89997 11.7817 6.72831 11.7108 6.56331 11.6158C6.39081 11.5158 6.23747 11.3967 6.10414 11.2608C5.99414 11.8525 5.77581 12.4242 5.47664 12.9425C5.16664 13.4792 4.76997 13.9608 4.31664 14.35C4.50164 14.3975 4.68331 14.4708 4.85747 14.5708C5.02164 14.665 5.16747 14.7783 5.29664 14.9058C5.40664 14.3167 5.62497 13.7483 5.92247 13.2325C6.23081 12.6983 6.62581 12.2192 7.07581 11.8308V11.8292ZM7.94414 11.2342C7.99581 11.2067 8.05247 11.1958 8.10664 11.1983C8.45081 11.0867 8.75664 10.8517 8.95247 10.5133C9.16247 10.15 9.20497 9.73667 9.10414 9.36083C9.08497 9.29083 9.06164 9.22167 9.03247 9.15417C8.70997 8.97167 8.43081 8.70333 8.23164 8.35917L8.22914 8.355C7.90914 8.21917 7.56247 8.20083 7.24414 8.28667C6.86914 8.3875 6.53164 8.63083 6.32247 8.99417C6.11247 9.3575 6.06997 9.77083 6.17081 10.1467C6.27164 10.5217 6.51497 10.8592 6.87831 11.0683C7.20664 11.2575 7.57581 11.3108 7.92164 11.245C7.92914 11.2408 7.93664 11.2367 7.94497 11.2325L7.94414 11.2342ZM18.62 2.34417C18.6225 2.34917 18.6258 2.35333 18.6283 2.35833C18.825 2.69917 18.9175 3.07083 18.9166 3.4375C18.9591 3.49333 19.005 3.54667 19.055 3.59583C19.33 3.87083 19.7091 4.04083 20.1283 4.04083C20.52 4.04083 20.8766 3.8925 21.1466 3.64917C21.1708 3.60167 21.2083 3.56 21.2566 3.52917C21.2633 3.525 21.27 3.52083 21.2766 3.51667C21.5075 3.25 21.6475 2.9025 21.6475 2.5225C21.6475 2.10333 21.4775 1.72333 21.2025 1.44917C20.9275 1.17417 20.5483 1.00417 20.1291 1.00417C19.71 1.00417 19.33 1.17417 19.0558 1.44917C18.8208 1.68417 18.6625 1.99667 18.6216 2.345L18.62 2.34417ZM16.2841 2.59417C16.5158 2.46083 16.7791 2.43333 17.0183 2.4975C17.2575 2.56167 17.4725 2.71667 17.6058 2.94833C17.7391 3.18 17.7666 3.44333 17.7025 3.6825C17.6383 3.92167 17.4833 4.13667 17.2516 4.27C17.02 4.40333 16.7566 4.43083 16.5175 4.36667C16.2783 4.3025 16.0633 4.1475 15.93 3.91583C15.7966 3.68417 15.7691 3.42083 15.8333 3.18167C15.8975 2.9425 16.0525 2.7275 16.2841 2.59417ZM16.9166 2.8775C16.775 2.83917 16.6183 2.85583 16.4808 2.935C16.3433 3.01417 16.2516 3.14167 16.2133 3.28333C16.175 3.425 16.1916 3.58167 16.2708 3.71917C16.35 3.85667 16.4775 3.94833 16.6191 3.98667C16.7608 4.025 16.9175 4.00833 17.055 3.92917C17.1925 3.85 17.2841 3.7225 17.3225 3.58083C17.3608 3.43917 17.3441 3.2825 17.265 3.145C17.1858 3.0075 17.0583 2.91583 16.9166 2.8775ZM9.60831 6.44833C9.83997 6.315 10.1033 6.2875 10.3425 6.35167C10.5816 6.41583 10.7966 6.57083 10.93 6.8025C11.0633 7.03417 11.0908 7.2975 11.0266 7.53667C10.9625 7.77583 10.8075 7.99083 10.5758 8.12417C10.3441 8.2575 10.0808 8.285 9.84164 8.22083C9.60247 8.15667 9.38747 8.00167 9.25414 7.77C9.12081 7.53833 9.09331 7.275 9.15747 7.03583C9.22164 6.79667 9.37664 6.58167 9.60831 6.44833ZM10.2408 6.73167C10.0991 6.69333 9.94247 6.71 9.80497 6.78917C9.66747 6.86833 9.57581 6.99583 9.53747 7.1375C9.49914 7.27917 9.51581 7.43583 9.59497 7.57333C9.67414 7.71083 9.80164 7.8025 9.94331 7.84083C10.085 7.87917 10.2416 7.8625 10.3791 7.78333C10.5166 7.70417 10.6083 7.57667 10.6466 7.435C10.685 7.29333 10.6683 7.13667 10.5891 6.99917C10.51 6.86167 10.3825 6.77 10.2408 6.73167ZM15.2441 4.9475C15.1158 4.81833 15.0025 4.67083 14.9066 4.50583C14.8066 4.33333 14.7341 4.1525 14.6866 3.96917C14.2958 4.42667 13.8208 4.8125 13.3025 5.11167C12.7658 5.42167 12.1816 5.64 11.5941 5.75C11.7308 5.88417 11.8516 6.03833 11.9516 6.21167C12.0458 6.37583 12.1166 6.54667 12.1641 6.72083C12.5541 6.26583 13.0275 5.8825 13.5433 5.58417C14.0775 5.27583 14.6591 5.05833 15.2433 4.94667L15.2441 4.9475ZM16.2933 4.86667C16.3516 4.86917 16.4058 4.8875 16.4516 4.9175C16.8058 4.9925 17.1883 4.9425 17.5266 4.7475C17.89 4.5375 18.1333 4.20083 18.2341 3.82583C18.2533 3.75583 18.2666 3.68417 18.2758 3.61167C18.0875 3.2925 17.98 2.92 17.98 2.52333V2.51833C17.7708 2.24083 17.48 2.05167 17.1608 1.96667C16.7858 1.86583 16.3716 1.90833 16.0083 2.11833C15.645 2.32833 15.4016 2.665 15.3008 3.04C15.2 3.415 15.2425 3.82917 15.4525 4.1925C15.6416 4.52083 15.9358 4.75167 16.2675 4.86667C16.2758 4.86667 16.285 4.8675 16.2933 4.8675V4.86667ZM27.8358 1.55417C28.1033 1.55417 28.345 1.6625 28.52 1.8375C28.695 2.0125 28.8033 2.25417 28.8033 2.52167C28.8033 2.78917 28.695 3.03083 28.52 3.20583C28.345 3.38083 28.1033 3.48917 27.8358 3.48917C27.5683 3.48917 27.3266 3.38083 27.1516 3.20583C26.9766 3.03083 26.8683 2.78917 26.8683 2.52167C26.8683 2.25417 26.9766 2.0125 27.1516 1.8375C27.3266 1.6625 27.5683 1.55417 27.8358 1.55417ZM28.2416 2.11583C28.1375 2.01167 27.9941 1.9475 27.8358 1.9475C27.6775 1.9475 27.5341 2.01167 27.43 2.11583C27.3258 2.22 27.2616 2.36333 27.2616 2.52167C27.2616 2.68 27.3258 2.82333 27.43 2.9275C27.5341 3.03167 27.6775 3.09583 27.8358 3.09583C27.9941 3.09583 28.1375 3.03167 28.2416 2.9275C28.3458 2.82333 28.41 2.68 28.41 2.52167C28.41 2.36333 28.3458 2.22 28.2416 2.11583ZM20.1275 1.55417C20.395 1.55417 20.6366 1.6625 20.8116 1.8375C20.9866 2.0125 21.095 2.25417 21.095 2.52167C21.095 2.78917 20.9866 3.03083 20.8116 3.20583C20.6366 3.38083 20.395 3.48917 20.1275 3.48917C19.86 3.48917 19.6183 3.38083 19.4433 3.20583C19.2683 3.03083 19.16 2.78917 19.16 2.52167C19.16 2.25417 19.2683 2.0125 19.4433 1.8375C19.6183 1.6625 19.86 1.55417 20.1275 1.55417ZM20.5333 2.11583C20.4291 2.01167 20.2858 1.9475 20.1275 1.9475C19.9691 1.9475 19.8258 2.01167 19.7216 2.11583C19.6175 2.22 19.5533 2.36333 19.5533 2.52167C19.5533 2.68 19.6175 2.82333 19.7216 2.9275C19.8258 3.03167 19.9691 3.09583 20.1275 3.09583C20.2858 3.09583 20.4291 3.03167 20.5333 2.9275C20.6375 2.82333 20.7016 2.68 20.7016 2.52167C20.7016 2.36333 20.6375 2.22 20.5333 2.11583ZM25.7583 3.0725C25.7116 2.89667 25.6866 2.71167 25.6866 2.52167C25.6866 2.3225 25.7141 2.12917 25.7641 1.94667C25.1966 2.1475 24.5925 2.24417 23.9941 2.24417C23.375 2.24417 22.7591 2.14083 22.1958 1.94333C22.2475 2.1275 22.275 2.32167 22.275 2.5225C22.275 2.71167 22.2508 2.895 22.205 3.07C22.77 2.87083 23.3716 2.77583 23.9675 2.77583C24.5841 2.77583 25.1966 2.87833 25.7583 3.07417V3.0725ZM5.88997 48.6417L9.89581 44.9583C9.05247 45.3033 8.20997 45.6792 7.36581 46.0858C7.31997 46.1125 7.26664 46.1275 7.20997 46.1275C7.03581 46.1275 6.89497 45.9867 6.89497 45.8125V39.605L2.83914 43.5942L5.32414 44.17C5.46164 44.1958 5.56997 44.3108 5.58081 44.4575L5.89081 48.6417H5.88997ZM41.305 46.0858C40.4608 45.6792 39.6175 45.3033 38.775 44.9583L42.7808 48.6417L43.0908 44.4575C43.1008 44.3117 43.21 44.1958 43.3475 44.17L45.8325 43.5942L41.7766 39.605V45.8125C41.7766 45.9867 41.6358 46.1275 41.4616 46.1275C41.405 46.1275 41.3516 46.1125 41.3058 46.0858H41.305ZM34.325 15.5742C34.7883 15.2 35.1891 14.7467 35.5116 14.3358C35.5533 14.28 35.6125 14.2375 35.685 14.2183C35.8525 14.175 36.0241 14.2758 36.0675 14.4433C36.0925 14.5392 36.1116 14.6325 36.1258 14.7258C36.1408 14.8242 36.1508 14.9125 36.1575 14.9967C36.24 16.0525 35.8975 17.0475 35.27 17.8025C34.6458 18.5525 33.74 19.0642 32.6891 19.1617C31.8408 19.24 31.0325 19.035 30.355 18.625L26.6016 21.8175L30.2975 24.835C30.8766 24.4942 31.5516 24.2992 32.2716 24.2992C33.3483 24.2992 34.3225 24.7358 35.0283 25.4408C35.7341 26.1467 36.17 27.1208 36.17 28.1975C36.17 29.2742 35.7333 30.2483 35.0283 30.9542C34.3225 31.66 33.3483 32.0958 32.2716 32.0958C31.195 32.0958 30.2208 31.6592 29.515 30.9542C28.8091 30.2483 28.3733 29.2742 28.3733 28.1975C28.3733 28.0225 28.385 27.8492 28.4075 27.68L24.0791 23.9767L19.775 27.68C19.7975 27.8492 19.8091 28.0225 19.8091 28.1975C19.8091 29.2742 19.3725 30.2483 18.6675 30.9542C17.9616 31.66 16.9875 32.0958 15.9108 32.0958C14.8341 32.0958 13.86 31.6592 13.1541 30.9542C12.4483 30.2483 12.0125 29.2742 12.0125 28.1975C12.0125 27.1208 12.4491 26.1467 13.1541 25.4408C13.86 24.735 14.8341 24.2992 15.9108 24.2992C16.5158 24.2992 17.0883 24.4367 17.5991 24.6825L21.335 21.6283L17.8266 18.6258C17.15 19.035 16.3416 19.2392 15.4941 19.1617C14.4425 19.065 13.5366 18.5533 12.9133 17.8025C12.2858 17.0475 11.9433 16.0525 12.0258 14.9967C12.0325 14.9125 12.0425 14.8242 12.0575 14.7258C12.0725 14.6325 12.0908 14.5392 12.1158 14.4433C12.1591 14.2758 12.3308 14.175 12.4983 14.2183C12.5708 14.2375 12.6308 14.28 12.6716 14.3358C12.9933 14.7467 13.395 15.2 13.8583 15.5742C14.3033 15.9342 14.805 16.22 15.345 16.3192C15.5191 16.32 15.7091 16.245 15.8883 16.1208C16.0775 15.99 16.2491 15.8083 16.3758 15.6042C16.4983 15.4067 16.5775 15.1925 16.5866 14.9892C16.5941 14.8342 16.56 14.685 16.4716 14.5575H16.4708C16.1783 14.1375 15.8241 13.7942 15.4175 13.4925C14.9991 13.1825 14.5233 12.9142 14.0016 12.6517C13.8466 12.5742 13.7841 12.3858 13.8616 12.2308C13.8833 12.1875 13.9141 12.1508 13.9508 12.1225C14.2558 11.8883 14.6083 11.7183 14.9908 11.6175C15.3691 11.5175 15.7783 11.485 16.1975 11.5233C17.2525 11.62 18.1675 12.1358 18.795 12.89C19.4225 13.645 19.7625 14.6383 19.665 15.6925C19.6525 15.8317 19.6316 15.9683 19.605 16.1017L24.0925 19.7658L28.58 16.1017C28.5533 15.9675 28.5333 15.8317 28.52 15.6925C28.4233 14.6383 28.7625 13.645 29.39 12.89C30.0175 12.135 30.9325 11.62 31.9875 11.5233C32.4066 11.485 32.815 11.5175 33.1941 11.6175C33.5766 11.7183 33.9291 11.8875 34.2341 12.1225C34.2708 12.1508 34.3008 12.1867 34.3233 12.2308C34.4008 12.3858 34.3383 12.5742 34.1833 12.6517C33.6616 12.9142 33.1866 13.1817 32.7675 13.4925C32.3608 13.7942 32.0066 14.1375 31.7141 14.5575H31.7133C31.625 14.6858 31.5908 14.835 31.5983 14.9892C31.6075 15.1925 31.6866 15.4067 31.8091 15.6042C31.9358 15.8083 32.1066 15.99 32.2966 16.1208C32.475 16.2442 32.6658 16.32 32.84 16.3192C33.38 16.22 33.8816 15.9342 34.3266 15.5742H34.325ZM29.8333 18.2458C29.3708 17.8475 29.0033 17.3383 28.7725 16.7558L24.5875 20.1725L26.1083 21.4142L29.8333 18.2458ZM15.9108 24.9283C15.0083 24.9283 14.1908 25.2942 13.6 25.8858C13.0083 26.4775 12.6425 27.2942 12.6425 28.1967C12.6425 29.0992 13.0083 29.9167 13.6 30.5075C14.1916 31.0992 15.0083 31.465 15.9108 31.465C16.8133 31.465 17.6308 31.0992 18.2216 30.5075C18.8133 29.9158 19.1791 29.0992 19.1791 28.1967C19.1791 27.2942 18.8133 26.4767 18.2216 25.8858C17.63 25.2942 16.8133 24.9283 15.9108 24.9283ZM18.6675 25.44C19.0958 25.8683 19.425 26.3958 19.6175 26.9858L23.5966 23.5625L21.8216 22.0433L18.1766 25.0233C18.3516 25.1483 18.5166 25.2883 18.6683 25.44H18.6675ZM32.2716 26.0008C32.8775 26.0008 33.4266 26.2467 33.8241 26.6442C34.2216 27.0417 34.4675 27.59 34.4675 28.1967C34.4675 28.8025 34.2216 29.3517 33.8241 29.7492C33.4266 30.1467 32.8783 30.3925 32.2716 30.3925C31.6658 30.3925 31.1166 30.1467 30.7191 29.7492C30.3216 29.3517 30.0758 28.8033 30.0758 28.1967C30.0758 27.5908 30.3216 27.0417 30.7191 26.6442C31.1166 26.2467 31.665 26.0008 32.2716 26.0008ZM33.3791 27.0892C33.0958 26.8058 32.7041 26.6308 32.2716 26.6308C31.8391 26.6308 31.4475 26.8058 31.1641 27.0892C30.8808 27.3725 30.7058 27.7642 30.7058 28.1967C30.7058 28.6292 30.8808 29.0208 31.1641 29.3042C31.4475 29.5875 31.8391 29.7625 32.2716 29.7625C32.7041 29.7625 33.0958 29.5875 33.3791 29.3042C33.6625 29.0208 33.8375 28.6292 33.8375 28.1967C33.8375 27.7642 33.6625 27.3725 33.3791 27.0892ZM34.5833 25.885C33.9916 25.2933 33.175 24.9275 32.2725 24.9275C31.37 24.9275 30.5525 25.2933 29.9616 25.885C29.37 26.4767 29.0041 27.2933 29.0041 28.1958C29.0041 29.0983 29.37 29.9158 29.9616 30.5067C30.5533 31.0983 31.37 31.4642 32.2725 31.4642C33.175 31.4642 33.9925 31.0983 34.5833 30.5067C35.175 29.915 35.5408 29.0983 35.5408 28.1958C35.5408 27.2933 35.175 26.4758 34.5833 25.885ZM28.565 26.9867C28.7575 26.3967 29.0866 25.8683 29.5158 25.44C29.5958 25.36 29.6791 25.2833 29.7658 25.2108L19.4108 16.7558C19.18 17.3383 18.8116 17.8475 18.35 18.2458L28.5658 26.9867H28.565ZM18.9475 16.1558C18.9491 16.1483 18.9508 16.1408 18.9533 16.1342C18.9941 15.9733 19.0225 15.8075 19.0383 15.6367C19.1191 14.7542 18.8358 13.9225 18.3108 13.2917C17.7858 12.6608 17.0208 12.23 16.1391 12.1483C15.7941 12.1167 15.4591 12.1433 15.1491 12.225C15.0225 12.2583 14.9 12.3008 14.7833 12.3525C15.1441 12.55 15.48 12.7575 15.79 12.9867C16.2516 13.3283 16.6533 13.7183 16.9866 14.1975H16.9858L16.9866 14.1983C17.1591 14.4483 17.2266 14.7292 17.2133 15.015C17.1983 15.33 17.085 15.6492 16.9091 15.9325C16.7375 16.21 16.5041 16.4575 16.245 16.6367C15.9583 16.835 15.635 16.9542 15.3183 16.9458C15.2966 16.9467 15.275 16.945 15.2533 16.9417C14.5891 16.825 13.9883 16.4867 13.4641 16.0633C13.1641 15.8208 12.8891 15.5492 12.6425 15.2758C12.635 16.0775 12.9158 16.8242 13.395 17.4008C13.9158 18.0275 14.6725 18.455 15.5508 18.5358C16.3275 18.6075 17.0641 18.3958 17.66 17.9867C17.6691 17.98 17.6783 17.9733 17.6883 17.9675C17.7591 17.9175 17.8291 17.8642 17.8958 17.8092C18.3991 17.3908 18.775 16.8192 18.9483 16.1567L18.9475 16.1558ZM15.9108 26.63C15.4783 26.63 15.0866 26.805 14.8033 27.0883C14.52 27.3717 14.345 27.7633 14.345 28.1958C14.345 28.6283 14.52 29.02 14.8033 29.3033C15.0866 29.5867 15.4783 29.7617 15.9108 29.7617C16.3433 29.7617 16.735 29.5867 17.0183 29.3033C17.3016 29.02 17.4766 28.6283 17.4766 28.1958C17.4766 27.7633 17.3016 27.3717 17.0183 27.0883C16.735 26.805 16.3433 26.63 15.9108 26.63ZM14.3583 26.6433C14.7558 26.2458 15.3041 26 15.9108 26C16.5166 26 17.0658 26.2458 17.4633 26.6433C17.8608 27.0408 18.1066 27.5892 18.1066 28.1958C18.1066 28.8017 17.8608 29.3508 17.4633 29.7483C17.0658 30.1458 16.5175 30.3917 15.9108 30.3917C15.305 30.3917 14.7558 30.1458 14.3583 29.7483C13.9608 29.3508 13.715 28.8025 13.715 28.1958C13.715 27.59 13.9608 27.0408 14.3583 26.6433Z" fill="EA8C3C"/>
</svg>
