<svg xmlns="http://www.w3.org/2000/svg" viewBox="0 0 234.409 234.409"><path d="M117.204 30.677c-47.711 0-86.527 38.816-86.527 86.528 0 47.711 38.816 86.526 86.527 86.526s86.527-38.815 86.527-86.526c.001-47.711-38.816-86.528-86.527-86.528zm0 158.055c-39.44 0-71.527-32.086-71.527-71.526 0-39.441 32.087-71.528 71.527-71.528s71.527 32.087 71.527 71.528c.001 39.439-32.086 71.526-71.527 71.526z"/><path d="M44.896 44.897A7.5 7.5 0 0034.289 34.29c-45.718 45.719-45.718 120.111 0 165.831a7.476 7.476 0 005.304 2.197 7.474 7.474 0 005.303-2.197 7.498 7.498 0 00.001-10.606C5.026 149.643 5.026 84.768 44.896 44.897zM200.119 34.29a7.5 7.5 0 00-10.607 10.607c39.872 39.871 39.872 104.746 0 144.618a7.5 7.5 0 005.304 12.803 7.478 7.478 0 005.304-2.197c45.719-45.721 45.719-120.112-.001-165.831zm-82.915 105.917a7.5 7.5 0 007.5-7.5v-63.88a7.5 7.5 0 00-7.5-7.5 7.5 7.5 0 00-7.5 7.5v63.88a7.5 7.5 0 007.5 7.5z"/><circle cx="117.204" cy="156.254" r="9.329"/></svg>