<svg width="100" height="100" fill="none" xmlns="http://www.w3.org/2000/svg"><path d="M97.52 40.698l-8.924-1.072a39.844 39.844 0 00-3.968-9.603l5.548-7.052c.848-1.084.752-2.76-.228-3.736l-9.196-9.2c-.968-.971-2.648-1.075-3.736-.227l-7.064 5.555a39.303 39.303 0 00-9.584-3.96L59.3 2.48C59.136 1.116 57.876 0 56.5 0H43.492c-1.376 0-2.636 1.116-2.796 2.48l-1.072 8.923c-3.4.909-6.62 2.248-9.592 3.964l-7.06-5.547c-1.08-.848-2.76-.748-3.732.224l-9.2 9.203c-.968.968-1.068 2.648-.216 3.736l5.544 7.056a39.515 39.515 0 00-3.964 9.6l-8.92 1.067C1.12 40.866 0 42.126 0 43.506v13.008c0 1.376 1.116 2.628 2.484 2.796l8.924 1.072a39.758 39.758 0 003.964 9.583L9.828 77.03c-.844 1.084-.748 2.76.228 3.736l9.184 9.203c.972.968 2.652 1.076 3.732.228l7.064-5.56a39.37 39.37 0 009.592 3.965l1.072 8.92c.164 1.367 1.42 2.479 2.796 2.479h13.008c1.38 0 2.636-1.112 2.796-2.48l1.072-8.92a39.715 39.715 0 009.592-3.963l7.064 5.547c1.084.848 2.76.748 3.732-.224l9.196-9.203c.976-.968 1.076-2.648.224-3.74l-5.552-7.056a39.571 39.571 0 003.968-9.587l8.92-1.072c1.368-.164 2.484-1.412 2.484-2.796V43.498c.004-1.384-1.108-2.636-2.48-2.8zM50.004 74.997c-13.808 0-25-11.192-25-24.999 0-13.807 11.192-24.999 25-24.999s25 11.192 25 24.999c0 13.807-11.188 24.999-25 24.999z" fill="#EA8C3C"/></svg>