<svg xmlns="http://www.w3.org/2000/svg" viewBox="0 0 205.914 205.914"><path d="M198.414 15.52c-17.416 0-34.016 3.825-47.692 10.859-13.703-7.035-30.327-10.859-47.767-10.859-17.438 0-34.061 3.824-47.764 10.859C41.516 19.345 24.915 15.52 7.5 15.52c-4.143 0-7.5 3.358-7.5 7.5s3.357 7.5 7.5 7.5c11.888 0 23.146 2.123 32.846 5.771-11.125 9.629-17.22 21.527-17.368 34.232-.005.111-.017.22-.017.332v87.376c0 17.734 14.428 32.163 32.162 32.163 17.731 0 32.159-14.428 32.162-32.163V70.855c0-.044-.006-.086-.007-.13-.041-12.773-6.11-24.742-17.256-34.421 9.727-3.657 21.014-5.784 32.933-5.784 11.92 0 23.208 2.127 32.936 5.785-11.184 9.712-17.26 21.73-17.26 34.551v87.376c0 17.734 14.428 32.163 32.162 32.163 17.733 0 32.16-14.428 32.16-32.163V70.855c0-.112-.012-.222-.017-.332-.148-12.705-6.243-24.603-17.368-34.232 9.699-3.648 20.958-5.771 32.846-5.771 4.143 0 7.5-3.358 7.5-7.5s-3.357-7.5-7.5-7.5zM72.283 70.855l.002.039v87.336c-.001 9.464-7.7 17.164-17.162 17.164-9.463 0-17.162-7.699-17.162-17.163V70.996c0-10.318 6.586-19.883 17.225-27.121 10.563 7.208 17.097 16.72 17.097 26.98zm95.67.141v87.235c0 9.463-7.698 17.163-17.16 17.163-9.463 0-17.162-7.699-17.162-17.163V70.855c0-10.26 6.533-19.772 17.097-26.98 10.639 7.239 17.225 16.803 17.225 27.121z"/></svg>