<svg xmlns="http://www.w3.org/2000/svg" viewBox="0 0 212.715 212.715"><path d="M211.436 187.771L112.843 17.002a7.5 7.5 0 00-12.99 0L1.005 188.213a7.499 7.499 0 006.495 11.25h197.715c4.143 0 7.5-3.357 7.5-7.5a7.473 7.473 0 00-1.279-4.192zM20.49 184.463l85.857-148.711 85.857 148.711H20.49z"/><path d="M99.853 67.055L44.251 163.36a7.499 7.499 0 006.495 11.25h111.203a7.499 7.499 0 007.52-7.5 7.473 7.473 0 00-1.279-4.192l-55.347-95.863a7.5 7.5 0 00-12.99 0zm49.106 92.555H63.736l42.611-73.806 42.612 73.806z"/></svg>