<svg width="48" height="50" fill="#EA8C3C" xmlns="http://www.w3.org/2000/svg"><path d="M35.542 15.276a7.367 7.367 0 01-.822.787c-.524.425-1.125.762-1.79.879a.284.284 0 01-.064.004c-.317.008-.64-.11-.927-.31a2.407 2.407 0 01-.664-.704 1.936 1.936 0 01-.304-.917 1.3 1.3 0 01.227-.817 5.209 5.209 0 011.196-1.211 8.8 8.8 0 011.007-.635 2.428 2.428 0 00-.366-.127 2.862 2.862 0 00-.99-.077 3.194 3.194 0 00-2.172 1.144 3.198 3.198 0 00-.642 2.842l.006.022a3.197 3.197 0 001.052 1.652 3.198 3.198 0 004.501-.407c.48-.577.76-1.323.752-2.125zM32.275 1.553c.503.29.843.753.99 1.27.372.693.993 1.309 1.74 1.739.71.41 1.53.65 2.345.623a2.138 2.138 0 011.6.223A2.144 2.144 0 0140 7.601a2.147 2.147 0 012.205 1.046 2.14 2.14 0 01.223 1.595c-.025.785.206 1.63.636 2.375.411.712 1.001 1.33 1.72 1.714.519.146.983.488 1.274.992a2.142 2.142 0 01-.19 2.425 2.149 2.149 0 01.783 3.504c-.414.667-.637 1.514-.637 2.374 0 .822.203 1.651.633 2.343.376.387.607.915.607 1.498a2.144 2.144 0 01-1.377 2.005 2.143 2.143 0 01-1.073 3.424c-.692.371-1.308.993-1.738 1.739-.411.711-.651 1.531-.623 2.346a2.138 2.138 0 01-.466 1.941l4.693 4.617a.315.315 0 01-.142.538l-2.829.656-.34 4.602a.315.315 0 01-.527.21l-5.66-5.205a39.268 39.268 0 00-4.299-1.294 36.218 36.218 0 00-8.54-1.002 36.17 36.17 0 00-8.539 1.002 39.505 39.505 0 00-4.298 1.294l-5.66 5.204a.315.315 0 01-.527-.21l-.34-4.6-2.83-.657a.314.314 0 01-.142-.538l4.36-4.288a2.144 2.144 0 01-.788-2.234c.025-.785-.206-1.629-.636-2.375-.41-.711-1-1.329-1.72-1.713a2.139 2.139 0 01-1.275-.992 2.14 2.14 0 01-.214-1.63c.077-.288.213-.56.404-.796a2.15 2.15 0 01-.782-3.503c.414-.667.636-1.514.636-2.374 0-.823-.202-1.652-.632-2.343a2.142 2.142 0 01-.608-1.498 2.144 2.144 0 011.377-2.006 2.143 2.143 0 011.073-3.424c.693-.37 1.309-.992 1.739-1.738.41-.712.65-1.532.623-2.346a2.138 2.138 0 01.223-1.6A2.144 2.144 0 017.97 7.63a2.147 2.147 0 011.046-2.205 2.14 2.14 0 011.596-.223c.785.025 1.629-.206 2.375-.636.711-.411 1.329-1.001 1.713-1.72.146-.518.488-.984.992-1.274a2.14 2.14 0 011.63-.215c.288.077.56.214.795.405a2.15 2.15 0 013.504-.783c.667.414 1.514.637 2.374.637.822 0 1.652-.203 2.343-.633a2.142 2.142 0 011.498-.607 2.144 2.144 0 012.006 1.376 2.143 2.143 0 012.433-.197l-.001-.002zm7.47 6.775a1.512 1.512 0 00-.867 1.003 1.513 1.513 0 001 1.838.31.31 0 01.159.035l.02.011a1.515 1.515 0 001.602-2.25 1.515 1.515 0 00-1.914-.636zm-1.523 1.06a2.144 2.144 0 01-2.42-1.564l-.014-.051c-.374-.667-.98-1.258-1.702-1.675-.691-.399-1.483-.635-2.273-.625l-.055.016a2.143 2.143 0 01-2.561-1.303 2.144 2.144 0 01-2.88-.144l-.036-.039c-.658-.39-1.479-.598-2.312-.598-.797 0-1.602.19-2.28.595l-.04.042a2.145 2.145 0 01-2.87.15 2.14 2.14 0 01-.936 1.1 2.14 2.14 0 01-1.63.215l-.05-.014c-.765-.01-1.58.22-2.302.637-.691.4-1.293.966-1.679 1.656l-.014.056a2.144 2.144 0 01-2.41 1.566 2.144 2.144 0 01-1.564 2.42l-.052.014c-.666.374-1.257.98-1.674 1.702-.399.691-.636 1.483-.625 2.273l.016.056a2.143 2.143 0 01-1.303 2.56 2.144 2.144 0 01-.183 2.916c-.39.658-.598 1.479-.598 2.312 0 .797.19 1.601.595 2.28l.042.04a2.143 2.143 0 01.15 2.87c.448.17.843.489 1.1.936a2.14 2.14 0 01.215 1.63l-.015.05c-.009.765.221 1.58.638 2.302.4.691.966 1.293 1.656 1.678l.056.015c.188.05.37.126.539.226 2.58-1.122 5.155-1.962 7.726-2.52a35.775 35.775 0 017.86-.823 35.79 35.79 0 017.622.773c2.524.53 5.05 1.332 7.58 2.404a2.09 2.09 0 01.27-.091l.051-.014c.667-.374 1.258-.98 1.674-1.702.4-.69.636-1.483.625-2.273a2.143 2.143 0 011.287-2.617 2.144 2.144 0 01.183-2.916c.39-.656.598-1.477.598-2.31 0-.798-.19-1.602-.594-2.282l-.042-.04a2.14 2.14 0 01-.63-1.519c0-.511.18-.981.479-1.35a2.14 2.14 0 01-1.1-.936 2.14 2.14 0 01-.214-1.63l.014-.05c.01-.764-.22-1.58-.638-2.302-.399-.69-.965-1.293-1.655-1.678a2.144 2.144 0 01-1.622-2.424h-.002zm-9.17-5.957c-.003-.371.09-.747.289-1.091l.002-.004a1.516 1.516 0 00-1.506-1.333c-.42 0-.8.17-1.074.445a1.514 1.514 0 00-.077 2.065l.023.014a.31.31 0 01.112.124c.269.242.625.39 1.016.39a1.511 1.511 0 001.216-.61zM38.36 6.43a.963.963 0 01.354 1.322.965.965 0 01-1.773-.233.966.966 0 011.419-1.089zm.07.69a.572.572 0 00-1.05-.14.576.576 0 00.645.842.573.573 0 00.406-.703zm-6.745-4.544a.964.964 0 01.354 1.321.965.965 0 01-1.772-.233.966.966 0 011.418-1.088zm.07.689a.572.572 0 00-.703-.406.573.573 0 00-.138 1.052.576.576 0 00.842-.646zm4.048 3.442a2.148 2.148 0 01.568-.972 5.332 5.332 0 01-1.682-.628 5.464 5.464 0 01-1.407-1.16 2.168 2.168 0 01-.556.98 5.472 5.472 0 013.075 1.78h.002zm.595.868a.315.315 0 01.035.162 1.516 1.516 0 002.044.926c.183-.322.451-.601.796-.8l.004-.003a1.51 1.51 0 00.068-.985 1.513 1.513 0 00-.707-.922 1.512 1.512 0 00-1.153-.151 1.515 1.515 0 00-1.098 1.75l.012.024-.002-.001zM31.52 4.898a.31.31 0 01.155-.049h.023a1.515 1.515 0 00.97-1.829 1.513 1.513 0 00-.707-.922 1.511 1.511 0 00-1.153-.151 1.513 1.513 0 00-.824.558v.016c0 .393-.106.762-.29 1.078a1.513 1.513 0 00.748 1.128c.339.196.722.246 1.077.17l.001.001zm13.768 13.353l-.015.008c-.34.197-.712.29-1.079.288a1.513 1.513 0 00-.603 1.212c0 .392.148.748.392 1.018a.31.31 0 01.12.11l.012.02a1.514 1.514 0 002.067-.074 1.513 1.513 0 000-2.146 1.515 1.515 0 00-.895-.434v-.002zm-.25-2.336a.965.965 0 01-.355 1.322.965.965 0 01-1.321-.354.965.965 0 01.354-1.322.965.965 0 011.322.354zm-.284.633a.572.572 0 00-.406-.704.572.572 0 00-.703.406.572.572 0 00.406.703.572.572 0 00.703-.405zm-3.57-7.309a.966.966 0 01-1.089 1.418.965.965 0 01-.233-1.773.966.966 0 011.321.355zm-.284.633a.573.573 0 00-.842-.646.572.572 0 00.139 1.051.572.572 0 00.703-.405zm1.784 5.003a2.174 2.174 0 01.979-.557 5.318 5.318 0 01-1.143-1.385 5.442 5.442 0 01-.638-1.708 2.153 2.153 0 01-.971.57 5.486 5.486 0 011.774 3.08zm.081 1.05a.313.313 0 01-.05.157 1.517 1.517 0 001.305 1.825c.32-.189.692-.296 1.088-.296h.005c.278-.21.467-.5.552-.82a1.515 1.515 0 00-2.226-1.708c-.328.19-.559.484-.674.815v.026zm2.36 13.69h-.015c-.393 0-.762-.106-1.078-.29a1.513 1.513 0 00-1.128.748 1.502 1.502 0 00-.17 1.077.31.31 0 01.048.155l.001.023a1.515 1.515 0 001.829.97c.375-.1.712-.344.921-.707.21-.364.253-.777.152-1.153a1.513 1.513 0 00-.558-.824l-.001.001zm.953-2.148a.964.964 0 01-.968.967.964.964 0 01-.968-.967.964.964 0 01.968-.968.964.964 0 01.968.968zm-.562.405a.572.572 0 000-.811.572.572 0 00-.812 0 .572.572 0 00.406.98.572.572 0 00.406-.169zm.562-8.114a.964.964 0 01-.968.968.964.964 0 01-.968-.968.964.964 0 01.968-.967.964.964 0 01.968.967zm-.562.406a.572.572 0 000-.812.572.572 0 00-.812 0 .572.572 0 000 .812.572.572 0 00.812 0zm-.957 5.226a2.146 2.146 0 011.126.006 5.47 5.47 0 01.003-3.568 2.138 2.138 0 01-1.125.009 5.32 5.32 0 01.294 1.762c0 .617-.103 1.23-.299 1.791h.001zm-.454.95a.31.31 0 01-.123.11c-.243.27-.39.626-.39 1.017a1.511 1.511 0 00.61 1.216c.37-.003.746.09 1.09.289l.005.002a1.515 1.515 0 001.332-1.506c0-.42-.17-.8-.445-1.074a1.514 1.514 0 00-2.065-.077l-.014.023zm-2.956 13.168a2.143 2.143 0 01-1.858-.14 2.144 2.144 0 01-.786-2.934c.11-.189.242-.355.393-.496a40.148 40.148 0 00-7.066-2.202 35.167 35.167 0 00-7.492-.761h-.003a35.19 35.19 0 00-7.726.812 40.51 40.51 0 00-7.321 2.356 2.14 2.14 0 01.442 1.952 2.144 2.144 0 01-2.205 1.588v5.632a45.114 45.114 0 013.727-1.553 40.245 40.245 0 014.4-1.327 36.795 36.795 0 018.684-1.018 36.8 36.8 0 018.685 1.018 39.996 39.996 0 014.453 1.346c1.225.447 2.449.959 3.673 1.534v-5.807zm.053-1.516a.964.964 0 01-1.321.354.965.965 0 01.233-1.772.966.966 0 011.089 1.418zm-.689.07a.572.572 0 00.406-.703.573.573 0 00-1.051-.138.575.575 0 00.645.842zm4.544-6.745a.963.963 0 01-1.322.354.963.963 0 01-.354-1.322.966.966 0 111.676.968zm-.69.07a.573.573 0 00.139-1.051.576.576 0 00-.842.646.573.573 0 00.703.405zm-3.441 4.047a2.149 2.149 0 01.971.569c.11-.592.329-1.164.628-1.682a5.463 5.463 0 011.16-1.408 2.169 2.169 0 01-.98-.555 5.471 5.471 0 01-1.78 3.075v.001zm-.869.595a.315.315 0 01-.162.036 1.516 1.516 0 00-.998 1.838c.101.375.345.712.708.921a1.513 1.513 0 002.074-.556 1.51 1.51 0 00.152-1.152 1.515 1.515 0 00-1.75-1.098.553.553 0 01-.024.012zM2.714 29.012l.014-.009a2.15 2.15 0 011.08-.288 1.513 1.513 0 00.603-1.212c0-.391-.149-.748-.392-1.018a.31.31 0 01-.12-.11l-.012-.02a1.514 1.514 0 00-2.068.074 1.513 1.513 0 000 2.147c.235.235.548.393.896.434v.002zm.25 2.335a.966.966 0 01.354-1.321.965.965 0 011.322.354.965.965 0 01-.354 1.322.965.965 0 01-1.322-.355zm.283-.632a.572.572 0 00.406.703.572.572 0 00.704-.405.572.572 0 00-.406-.704.572.572 0 00-.704.406zm3.571 7.308a.965.965 0 01.354-1.321.965.965 0 011.322.354.966.966 0 01-.354 1.322.966.966 0 01-1.322-.355zm.284-.632a.572.572 0 00.405.703.573.573 0 00.646-.842.572.572 0 00-1.051.139zm-1.785-5.003a2.173 2.173 0 01-.978.557c.458.39.843.866 1.143 1.384.31.537.528 1.121.638 1.709a2.154 2.154 0 01.97-.57 5.484 5.484 0 01-1.774-3.08h.001zm-.08-1.05a.313.313 0 01.05-.158 1.517 1.517 0 00-1.305-1.824c-.32.188-.692.296-1.089.296h-.005c-.277.209-.466.5-.551.819a1.515 1.515 0 002.226 1.708c.328-.189.559-.483.674-.815v-.026zm2.885 4.757a.31.31 0 01-.159-.035l-.02-.01A1.515 1.515 0 006.34 38.3a1.516 1.516 0 002.074.555 1.515 1.515 0 00.556-2.074 1.513 1.513 0 00-.849-.686zM2.876 17.648h.016c.393 0 .761.105 1.078.29a1.513 1.513 0 001.128-.747c.196-.34.246-.723.17-1.078a.31.31 0 01-.049-.155v-.024a1.515 1.515 0 00-1.829-.97 1.512 1.512 0 00-.922.708c-.21.363-.252.776-.151 1.152.085.322.277.615.558.824zm-.952 2.148a.964.964 0 01.968-.968.964.964 0 01.967.968.964.964 0 01-.967.967.964.964 0 01-.968-.967zm.562-.406a.572.572 0 000 .812.572.572 0 00.811 0 .572.572 0 000-.812.572.572 0 00-.811 0zm-.562 8.114a.964.964 0 01.968-.967.964.964 0 01.967.967.964.964 0 01-.967.968.964.964 0 01-.968-.968zm.562-.406a.572.572 0 000 .812.572.572 0 00.811 0 .572.572 0 000-.812.572.572 0 00-.811 0zm.956-5.225a2.145 2.145 0 01-1.125-.006 5.47 5.47 0 01-.003 3.568 2.143 2.143 0 011.126-.008 5.32 5.32 0 01-.294-1.763c0-.617.102-1.229.298-1.79h-.002zm.455-.949a.31.31 0 01.123-.111c.242-.27.39-.625.39-1.016a1.511 1.511 0 00-.61-1.217c-.37.003-.747-.09-1.09-.288l-.005-.003a1.516 1.516 0 00-1.333 1.507c0 .419.17.799.445 1.073a1.515 1.515 0 002.065.077l.015-.023v.001zm4.8-13.037l.015.009c.34.196.606.472.789.79a1.517 1.517 0 001.351-.083c.34-.195.575-.502.686-.848a.31.31 0 01.035-.16l.011-.02a1.515 1.515 0 00-2.25-1.602 1.515 1.515 0 00-.636 1.915zM6.8 9.272a.965.965 0 011.772.233.965.965 0 01-.684 1.185.965.965 0 01-1.185-.684.965.965 0 01.097-.734zm.69-.071a.573.573 0 00-.139 1.051.575.575 0 00.842-.645.573.573 0 00-.704-.406zm-4.544 6.746a.963.963 0 011.322-.354.966.966 0 01-.233 1.772.965.965 0 01-1.186-.684.965.965 0 01.097-.734zm.69-.071a.573.573 0 00-.14 1.051.575.575 0 00.842-.645.573.573 0 00-.703-.406zm3.44-4.047a2.148 2.148 0 01-.97-.568 5.331 5.331 0 01-.628 1.682 5.463 5.463 0 01-1.16 1.407 2.168 2.168 0 01.98.556 5.474 5.474 0 011.78-3.075v-.002zm.87-.595a.315.315 0 01.162-.036 1.515 1.515 0 00.997-1.837 1.41 1.41 0 00-.072-.207 2.142 2.142 0 01-.8-.795l-.003-.004a1.513 1.513 0 00-1.907.64c-.21.362-.252.776-.151 1.152a1.515 1.515 0 001.75 1.098.596.596 0 01.024-.012v.001zm10.675-8.89l.008.014c.197.341.29.713.289 1.08a1.513 1.513 0 001.212.603c.391 0 .748-.149 1.018-.392a.31.31 0 01.13-.132 1.514 1.514 0 00-.075-2.068 1.513 1.513 0 00-2.146 0 1.516 1.516 0 00-.434.896h-.002zm-2.336.25a.965.965 0 011.322.354.966.966 0 01-1.089 1.419.965.965 0 01-.233-1.772zm.633.284a.572.572 0 00-.704.405.572.572 0 00.406.704.572.572 0 00.704-.406.573.573 0 00-.406-.704zm-7.309 3.57a.965.965 0 011.322.354.965.965 0 01-.354 1.322.965.965 0 01-1.322-.354.965.965 0 01.354-1.322zm.633.284a.572.572 0 00-.704.405.572.572 0 00.406.704.572.572 0 00.704-.406.572.572 0 00-.406-.703zm5.003-1.785a2.177 2.177 0 01-.557-.978 5.32 5.32 0 01-1.384 1.143 5.444 5.444 0 01-1.709.638 2.154 2.154 0 01.57.97 5.485 5.485 0 013.08-1.774v.002zm1.05-.08c.058.002.112.02.158.05a1.517 1.517 0 001.824-1.305 2.136 2.136 0 01-.296-1.089v-.005c-.21-.277-.5-.466-.82-.551a1.515 1.515 0 00-1.708 2.226c.19.328.484.559.816.674h.025zm11.542-3.313a.964.964 0 01.967.968.964.964 0 01-.967.967.964.964 0 01-.968-.967.964.964 0 01.968-.968zm.406.562a.572.572 0 00-.812 0 .572.572 0 000 .812.572.572 0 00.812 0 .572.572 0 000-.812zm-8.114-.562a.964.964 0 01.967.968.964.964 0 01-.967.967.964.964 0 01-.968-.967.964.964 0 01.968-.968zm.405.562a.572.572 0 00-.811 0 .572.572 0 000 .812.572.572 0 00.811 0 .572.572 0 000-.812zm5.225.956a2.145 2.145 0 01.006-1.125 5.47 5.47 0 01-3.568-.003 2.14 2.14 0 01.009 1.126 5.319 5.319 0 011.763-.294c.616 0 1.229.102 1.79.298v-.002zM5.89 48.642l4.006-3.684c-.844.345-1.686.721-2.53 1.128a.315.315 0 01-.47-.273v-6.208l-4.057 3.99 2.485.575c.138.026.246.14.257.288l.31 4.184H5.89zm35.415-2.556a46.026 46.026 0 00-2.53-1.128l4.006 3.684.31-4.184a.316.316 0 01.256-.288l2.486-.576-4.056-3.989v6.208a.315.315 0 01-.471.273h-.001zm-6.98-30.512a7.758 7.758 0 001.187-1.238.314.314 0 01.556.107c.024.096.044.19.058.283a3.903 3.903 0 01-.856 3.077 3.798 3.798 0 01-2.58 1.359 3.814 3.814 0 01-2.335-.537l-3.753 3.192 3.695 3.018a3.88 3.88 0 011.975-.536c1.076 0 2.05.437 2.756 1.142a3.885 3.885 0 011.142 2.757c0 1.076-.437 2.05-1.142 2.756a3.885 3.885 0 01-2.756 1.142 3.888 3.888 0 01-2.757-1.142 3.885 3.885 0 01-1.108-3.274l-4.328-3.703-4.304 3.703a3.889 3.889 0 01-1.107 3.274 3.885 3.885 0 01-2.757 1.142 3.889 3.889 0 01-2.757-1.142 3.885 3.885 0 01-1.142-2.756 3.89 3.89 0 011.142-2.757 3.885 3.885 0 012.757-1.142 3.88 3.88 0 011.688.384l3.736-3.055-3.508-3.002a3.82 3.82 0 01-4.914-.824 3.903 3.903 0 01-.856-3.076 2.97 2.97 0 01.059-.283.314.314 0 01.556-.107 7.7 7.7 0 001.186 1.238c.445.36.947.646 1.487.745.174.001.364-.074.543-.198.19-.131.361-.313.488-.517a1.31 1.31 0 00.21-.615.686.686 0 00-.114-.432h-.001a4.582 4.582 0 00-1.053-1.065c-.419-.31-.895-.578-1.416-.84a.314.314 0 01-.051-.53 2.925 2.925 0 011.04-.505c.378-.1.787-.132 1.207-.094a3.822 3.822 0 012.597 1.367 3.82 3.82 0 01.81 3.212l4.488 3.664 4.487-3.664a3.823 3.823 0 01.81-3.212 3.82 3.82 0 012.598-1.367 3.492 3.492 0 011.206.095c.383.1.735.27 1.04.505a.314.314 0 01-.05.53 9.466 9.466 0 00-1.416.84 4.58 4.58 0 00-1.054 1.064.689.689 0 00-.116.432c.01.204.089.418.211.615.127.204.298.386.488.517.178.123.369.199.543.198.54-.099 1.042-.385 1.487-.745h-.002zm-4.492 2.672a3.828 3.828 0 01-1.06-1.49l-4.186 3.416 1.521 1.242 3.725-3.168zm-13.922 6.682c-.903 0-1.72.366-2.311.958a3.257 3.257 0 00-.957 2.31c0 .903.365 1.72.957 2.311a3.257 3.257 0 002.31.958c.903 0 1.72-.366 2.312-.957a3.257 3.257 0 00.957-2.311c0-.903-.366-1.72-.957-2.311a3.257 3.257 0 00-2.311-.958zm2.757.512c.428.428.757.956.95 1.546l3.979-3.424-1.775-1.519-3.645 2.98c.175.125.34.265.491.417zm13.604.56a2.19 2.19 0 011.552.644c.398.398.644.946.644 1.553a2.19 2.19 0 01-.644 1.552 2.188 2.188 0 01-1.552.643 2.19 2.19 0 01-1.553-.643 2.188 2.188 0 01-.643-1.552c0-.606.246-1.155.643-1.553a2.188 2.188 0 011.553-.643zm1.107 1.09a1.561 1.561 0 00-1.107-.46 1.561 1.561 0 00-1.566 1.567 1.561 1.561 0 001.566 1.566 1.561 1.561 0 001.566-1.566c0-.433-.175-.825-.459-1.108zm1.204-1.205a3.257 3.257 0 00-2.31-.958c-.903 0-1.72.366-2.311.958a3.258 3.258 0 00-.958 2.31c0 .903.366 1.72.958 2.312a3.258 3.258 0 002.31.957c.903 0 1.72-.366 2.311-.957a3.257 3.257 0 00.958-2.311c0-.903-.366-1.72-.958-2.311zm-6.018 1.102a3.891 3.891 0 011.2-1.776l-10.354-8.455a3.855 3.855 0 01-1.061 1.49l10.216 8.74h-.001zm-9.617-10.831a3.232 3.232 0 00.09-.52 3.198 3.198 0 00-.727-2.344 3.2 3.2 0 00-2.172-1.144 2.862 2.862 0 00-.99.077 2.51 2.51 0 00-.366.127c.361.198.697.405 1.007.635a5.17 5.17 0 011.197 1.21h-.001v.001c.173.25.24.531.227.817a1.944 1.944 0 01-.304.917 2.407 2.407 0 01-.664.705c-.287.198-.61.317-.927.309a.482.482 0 01-.065-.004c-.664-.117-1.265-.455-1.789-.879a7.296 7.296 0 01-.822-.787 3.272 3.272 0 00.753 2.125 3.194 3.194 0 004.5.408c.504-.418.88-.99 1.053-1.652v-.001zM15.91 26.63a1.561 1.561 0 00-1.566 1.566 1.561 1.561 0 001.566 1.566 1.561 1.561 0 001.566-1.566 1.561 1.561 0 00-1.566-1.566zm-1.553.013A2.188 2.188 0 0115.911 26a2.19 2.19 0 011.552.643c.398.398.644.946.644 1.553a2.19 2.19 0 01-.644 1.552 2.188 2.188 0 01-1.552.644 2.19 2.19 0 01-1.553-.644 2.188 2.188 0 01-.643-1.552c0-.606.246-1.155.643-1.553z" fill="EA8C3C"/></svg>